<?xml version="1.0" encoding="UTF-8"?>
<!--
  Stylized world silhouette (original, not traced from a third-party asset).
  Purpose: background texture for the "Critical Data" simulation screen.
-->
<svg xmlns="http://www.w3.org/2000/svg" viewBox="0 0 1200 600">
  <rect width="1200" height="600" fill="black"/>

  <!-- Greenland -->
  <path fill="white" d="M250 95c25-22 70-20 95 6 15 15 10 36-8 52-30 26-83 24-108-3-17-19-10-39 21-55z" opacity="0.9"/>

  <!-- North America -->
  <path fill="white" d="M135 165c42-52 123-78 203-68 44 6 76 24 94 52 14 23 10 44-8 64-18 19-42 30-63 35-18 4-26 13-33 24-12 20-34 33-63 39-30 6-59 3-86-9-26-11-44-29-52-53-8-25-2-52 8-84z" opacity="0.95"/>

  <!-- Central America -->
  <path fill="white" d="M360 270c18-10 38-8 48 6 8 12 1 26-12 35-18 12-35 10-44-1-10-12-7-30 8-40z" opacity="0.9"/>

  <!-- South America -->
  <path fill="white" d="M392 312c26-15 58-13 77 7 14 15 14 38 1 64-13 26-22 55-24 83-1 23-7 43-18 58-13 18-30 22-48 13-19-10-31-28-34-52-4-27 1-61 12-97 11-35 18-60 34-76z" opacity="0.95"/>

  <!-- Europe -->
  <path fill="white" d="M560 180c30-28 78-38 120-26 26 7 45 23 52 44 7 22-2 41-22 56-29 21-68 26-106 16-28-8-48-24-55-45-7-21-2-33 11-45z" opacity="0.93"/>

  <!-- Africa -->
  <path fill="white" d="M600 258c26-24 66-28 97-12 25 13 40 37 42 68 2 31-9 68-27 101-15 28-18 55-20 81-2 24-14 40-34 47-22 7-44-1-61-22-20-26-30-61-30-100 0-47 12-91 33-125z" opacity="0.95"/>

  <!-- Middle East / India -->
  <path fill="white" d="M712 268c18-14 46-16 68-3 16 10 21 27 12 45-10 20-32 33-56 34-22 2-39-8-45-25-6-18 3-38 21-51z" opacity="0.9"/>

  <!-- Eurasia / Asia -->
  <path fill="white" d="M675 160c56-52 162-76 270-62 80 10 145 40 167 84 16 31 7 57-22 78-31 22-78 33-126 33-39 1-68 10-94 25-35 20-79 30-129 28-65-3-115-25-141-60-29-40-23-85 75-126z" opacity="0.95"/>

  <!-- SE Asia / Indonesia -->
  <path fill="white" d="M900 350c22-14 56-12 74 5 12 12 10 27-3 41-17 18-45 24-70 16-21-7-30-25-22-41 4-9 10-16 21-21z" opacity="0.9"/>

  <!-- Australia -->
  <path fill="white" d="M930 430c34-30 86-36 127-13 26 15 35 41 23 66-15 31-56 54-97 54-37 0-69-16-81-41-11-22-3-44 28-66z" opacity="0.95"/>
</svg>

