<svg xmlns="http://www.w3.org/2000/svg" viewBox="0 0 1365 768" width="1365" height="768">
  <defs>
    <linearGradient id="sky" x1="0" y1="0" x2="0" y2="1">
      <stop offset="0" stop-color="#0c76e8"/>
      <stop offset=".42" stop-color="#47aafa"/>
      <stop offset=".72" stop-color="#9ed2ff"/>
      <stop offset="1" stop-color="#e5f6ff"/>
    </linearGradient>
    <linearGradient id="hill1" x1="0" y1="0" x2="1" y2="1">
      <stop offset="0" stop-color="#8fd552"/>
      <stop offset=".45" stop-color="#51aa34"/>
      <stop offset="1" stop-color="#246f22"/>
    </linearGradient>
    <linearGradient id="hill2" x1="0" y1="0" x2="1" y2="1">
      <stop offset="0" stop-color="#b7e97a"/>
      <stop offset=".42" stop-color="#6dbd3c"/>
      <stop offset="1" stop-color="#2c7e26"/>
    </linearGradient>
    <filter id="blur" x="-20%" y="-20%" width="140%" height="140%">
      <feGaussianBlur stdDeviation="10"/>
    </filter>
  </defs>
  <rect width="1365" height="768" fill="url(#sky)"/>
  <g fill="#fff" opacity=".92" filter="url(#blur)">
    <ellipse cx="154" cy="88" rx="132" ry="30"/>
    <ellipse cx="246" cy="70" rx="98" ry="26"/>
    <ellipse cx="390" cy="118" rx="154" ry="34"/>
    <ellipse cx="730" cy="76" rx="176" ry="35"/>
    <ellipse cx="910" cy="104" rx="122" ry="30"/>
    <ellipse cx="1180" cy="72" rx="184" ry="36"/>
    <ellipse cx="1250" cy="186" rx="138" ry="28"/>
  </g>
  <path d="M0 462 C212 424 385 441 551 510 C735 586 972 540 1365 385 L1365 768 L0 768 Z" fill="url(#hill1)"/>
  <path d="M0 585 C262 488 520 457 774 538 C993 607 1186 624 1365 592 L1365 768 L0 768 Z" fill="url(#hill2)"/>
  <g opacity=".18" fill="none" stroke="#fff" stroke-width="1.4">
    <path d="M0 622 C270 535 520 507 772 578 C1004 642 1195 659 1365 632"/>
    <path d="M0 664 C292 585 560 568 850 632 C1030 671 1184 686 1365 666"/>
  </g>
  <g opacity=".16">
    <path d="M142 768 C230 620 340 535 510 494 C364 519 223 596 0 768 Z" fill="#fff"/>
    <path d="M1130 768 C1030 664 930 604 780 556 C980 609 1130 624 1365 592 L1365 768 Z" fill="#173f16"/>
  </g>
</svg>
