<svg xmlns="http://www.w3.org/2000/svg" viewBox="0 0 1365 768" width="1365" height="768">
  <defs>
    <radialGradient id="bg" cx="50%" cy="45%" r="72%">
      <stop offset="0" stop-color="#6bd7ff"/>
      <stop offset=".36" stop-color="#2369e8"/>
      <stop offset=".72" stop-color="#171b7a"/>
      <stop offset="1" stop-color="#080d2f"/>
    </radialGradient>
    <linearGradient id="r1" x1="0" y1="0" x2="1" y2="1">
      <stop offset="0" stop-color="#83f2ff" stop-opacity=".85"/>
      <stop offset=".48" stop-color="#3176ff" stop-opacity=".72"/>
      <stop offset="1" stop-color="#794dff" stop-opacity=".1"/>
    </linearGradient>
    <linearGradient id="r2" x1="1" y1="0" x2="0" y2="1">
      <stop offset="0" stop-color="#fff" stop-opacity=".72"/>
      <stop offset=".45" stop-color="#76dbff" stop-opacity=".45"/>
      <stop offset="1" stop-color="#2c3bd8" stop-opacity=".08"/>
    </linearGradient>
    <filter id="soft" x="-30%" y="-30%" width="160%" height="160%">
      <feGaussianBlur stdDeviation="22"/>
    </filter>
  </defs>
  <rect width="1365" height="768" fill="url(#bg)"/>
  <g filter="url(#soft)" opacity=".9">
    <path d="M296 170 C424 44 644 72 760 202 C852 304 844 472 724 552 C595 638 385 610 276 486 C180 378 182 282 296 170Z" fill="url(#r1)"/>
    <path d="M548 122 C690 14 906 72 1006 220 C1088 342 1038 510 890 590 C714 684 508 610 462 454 C426 331 435 212 548 122Z" fill="url(#r2)"/>
  </g>
  <path d="M0 0h1365v768H0z" fill="none"/>
  <g opacity=".16" fill="none" stroke="#fff">
    <path d="M340 160 C520 250 722 236 952 150"/>
    <path d="M278 510 C508 424 728 446 1004 604"/>
    <path d="M468 90 C404 258 416 452 540 648"/>
  </g>
</svg>
